<svg id="Layer_1" data-name="Layer 1" xmlns="http://www.w3.org/2000/svg" viewBox="0 0 1000 1000"><defs><style>.cls-1{fill:#8282ff;}</style></defs><path d="M627.27,352.23,539,370,508.6,461.87l112.6-54.68Q624.23,379.71,627.27,352.23Z"/><path d="M286.58,352.23,374.81,370l30.44,91.84L292.64,407.19Z"/><path class="cls-1" d="M693.9,519.11a210.85,210.85,0,0,0-47.71,84A477,477,0,0,0,719.66,769c25.06-31.94,59.94-91.38,49.58-165.87-6.71-48.14-29.64-84.32-49.31-107.41A204.31,204.31,0,0,0,693.9,519.11Z"/><path d="M828.67,594.87C817.45,514.21,771.4,460.09,745,435V425a286.73,286.73,0,0,0-69.21-187l0,0c6-3.11,26.28-14.09,35.62-38A68.39,68.39,0,0,0,716,175.09a753.22,753.22,0,0,0-90.61,16.45,286.57,286.57,0,0,0-174-54.52A282.24,282.24,0,0,0,291.1,190.59a631.23,631.23,0,0,0-86.42-16.4,71,71,0,0,0,6.21,27.74c8,17.65,21.38,27.16,29,32.61.58.41,1.12.73,1.7,1.11A295.18,295.18,0,0,0,168.9,429.83v68.95C168.9,700,332,863,533.15,863H745v-32C770.25,805,845.53,716.06,828.67,594.87ZM456.92,197a226.53,226.53,0,0,1,93.26,20c-11.72,5.51-21.17,11.11-28,16.56-11.42,9.12-22.23,19.67-22.23,19.67a304.63,304.63,0,0,0-42.66,52.09,287.72,287.72,0,0,0-37.49-46.85,329.67,329.67,0,0,0-28.53-25.23c-6.87-5.31-16.07-10.86-27.28-16.39A226.71,226.71,0,0,1,456.92,197ZM533.15,803C365.39,803,228.9,666.54,228.9,498.78V425a227.52,227.52,0,0,1,75.54-169.37,193.42,193.42,0,0,1,50.13,25.1c50.32,35.19,68.7,83.8,74.28,100.87l27.39,72.52,28.57-72.06c5.66-17.23,24.22-66.11,74.87-101.65a196,196,0,0,1,49.38-25.07A227.47,227.47,0,0,1,684.94,425v22.18A264.12,264.12,0,0,0,650.1,478.1c-30.23,32.29-52.31,72.61-63.85,116.59a29.92,29.92,0,0,0-.31,13.89A535.58,535.58,0,0,0,670.27,803ZM770.7,642c-.06,1-.14,2.05-.22,3.07-.24,3.17-.56,6.3-.94,9.4-.09.65-.15,1.31-.23,2-.49,3.55-1.07,7-1.73,10.47-.2,1.06-.42,2.1-.64,3.15q-.83,4-1.78,7.89c-.23.91-.44,1.84-.67,2.74q-1.25,4.72-2.67,9.28c-.36,1.16-.74,2.3-1.12,3.44q-1.05,3.18-2.17,6.28c-.41,1.15-.82,2.3-1.25,3.43q-1.54,4.07-3.21,8c-.55,1.3-1.12,2.56-1.69,3.83q-1.05,2.35-2.13,4.65c-.63,1.33-1.25,2.66-1.89,4-1.12,2.26-2.26,4.49-3.41,6.66h0A266.14,266.14,0,0,1,719.66,769a475.33,475.33,0,0,1-57.28-110.87c-.1-.26-.18-.53-.28-.79-1.5-4.21-3-8.44-4.36-12.69-.28-.86-.53-1.72-.8-2.57-1.18-3.68-2.35-7.37-3.44-11.09-.56-1.9-1.06-3.81-1.6-5.72-.76-2.7-1.54-5.4-2.25-8.11q-1.83-7-3.46-14c1.1-3.69,2.31-7.34,3.59-11,.46-1.3,1-2.56,1.46-3.84.86-2.28,1.73-4.55,2.66-6.79.65-1.57,1.35-3.12,2-4.67.84-1.88,1.69-3.75,2.57-5.6s1.66-3.4,2.52-5.08,1.67-3.19,2.53-4.77c1-1.81,2-3.63,3-5.41.75-1.3,1.55-2.56,2.33-3.84,1.2-2,2.4-3.95,3.67-5.88.37-.57.78-1.11,1.16-1.68a202.11,202.11,0,0,1,20.17-25.51,204.31,204.31,0,0,1,26-23.38,220.28,220.28,0,0,1,36.41,59.55c.15.36.28.73.43,1.09q1.38,3.45,2.67,7l.81,2.35q1.05,3,2,6.16c.3,1,.59,2,.88,2.94.58,2,1.12,4,1.64,6,.28,1.06.56,2.12.82,3.19.51,2.12,1,4.29,1.42,6.46.2,1,.42,2,.61,3,.6,3.17,1.15,6.39,1.61,9.67.57,4.15,1,8.23,1.27,12.29.08,1.06.15,2.11.21,3.16.21,3.66.35,7.28.36,10.85,0,.38,0,.76,0,1.13C771.09,634.45,770.94,638.26,770.7,642Z"/><path class="cls-1" d="M364,216.85c11.21,5.53,20.41,11.08,27.28,16.39a329.67,329.67,0,0,1,28.53,25.23,287.72,287.72,0,0,1,37.49,46.85,304.63,304.63,0,0,1,42.66-52.09s10.81-10.55,22.23-19.67c6.84-5.45,16.29-11.05,28-16.56a227.16,227.16,0,0,0-186.2-.15Z"/></svg>