<svg id="Layer_1" data-name="Layer 1" xmlns="http://www.w3.org/2000/svg" viewBox="0 0 1000 500"><defs><style>.cls-1{fill:#fff;}.cls-2{fill:#8282ff;}</style></defs><path class="cls-1" d="M563.28,231.19c5.13,0,11.39-.78,16.16,0,2,.32,4.38,3,5.32,5.18,6,13.79,11.46,27.81,17.47,41.59a16.11,16.11,0,0,0,2.5,3.82,4.78,4.78,0,0,0,7.4-.09,16,16,0,0,0,2.21-3.53q9.09-21,17.49-42.3c1.6-4.1,3.72-5.34,8.07-5.23,13.59.33,13.49.16,18.78,13.11q7.68,18.79,15.83,37.4a6.14,6.14,0,0,0,.83,1.35,4.74,4.74,0,0,0,7.4,0,5.9,5.9,0,0,0,.76-1.24c6.37-14.56,12.79-29.12,18.51-44,2-5.23,4.74-7,10-6.44,3.57.36,7.2.07,11.92.07-2.58,6.43-4.69,12-7,17.4C711,262.15,705.27,276.06,699,289.75c-3.91,8.58-10.65,14.21-20.51,14.24-9.53,0-15.51-5.94-19.31-13.92-5.35-11.24-10.12-22.75-15.6-35.2-3.83,8.93-7.23,17.14-10.88,25.23-2.21,4.88-4.34,9.9-7.34,14.3-1.76,2.59-8.59,9.82-17.92,9.79-8.66,0-16.94-6.51-21-16.15C579.21,269,570.61,250.23,563.28,231.19Z"/><path class="cls-1" d="M749.45,231.08c-4.57-7.62-3.62-18.92-16.93-17.58V196.44c13.6-2.52,22.32,2.46,28.23,16.42,9.63,22.73,19.07,45.54,28.58,68.33,3,7.23,6,14.49,9.42,22.79-6.38,0-11.53.45-16.53-.24-1.83-.25-3.94-2.91-4.82-4.95-5.88-13.6-11.46-27.32-17.14-41a18.62,18.62,0,0,0-1.86-4.1,24.83,24.83,0,0,0-2-2.27,3.91,3.91,0,0,0-5.44-.2,6.87,6.87,0,0,0-1.78,2.25c-5.89,13.59-11.53,27.29-17.2,41-4.08,9.85-4,9.85-14.51,9.71-2.53,0-5.06,0-8.62,0,2.91-7.39,5.39-14,8.08-20.44,4.3-10.3,8.79-20.52,13.09-30.82C733.93,243.63,738.32,234.85,749.45,231.08Z"/><path class="cls-1" d="M375.38,227.25l-34.69,27.16a3.61,3.61,0,0,0-.6,5.08l35.29,44.7H361.74a11.7,11.7,0,0,1-9.1-4.35l-24.33-30.21a4.5,4.5,0,0,0-6.27-.72l-11.44,9v18.56a7.75,7.75,0,0,1-7.74,7.75h-8.72V194.94h2.29a14.16,14.16,0,0,1,14.17,14.17v49.38L349,230.43a15.75,15.75,0,0,1,9.48-3.18Z"/><path class="cls-1" d="M455,234q-9.46-8.84-25.73-8.84a42.67,42.67,0,0,0-21.6,6,41.27,41.27,0,0,0-6.64,4.94l-.1-.25c-4-9.72-4-9.73-14.33-9.59-2.49,0,.11,0-3.4,0l.2.51v77.41h12a4.62,4.62,0,0,0,4.62-4.62V263.74q0-11.93,6.82-18,7-6,18-6,10.53,0,16.73,5.73,6.36,5.75,6.36,17.21v36.91a4.61,4.61,0,0,0,4.61,4.62h12V258.63Q464.48,242.67,455,234Z"/><path class="cls-1" d="M517.66,304.19q-19.78,0-32.38-10.94t-12.59-28q0-17.08,12.44-28,12.6-11,32.53-11t32.54,11q12.59,10.94,12.59,28t-12.59,28Q537.75,304.19,517.66,304.19Zm-21.13-21.14q7.79,7.05,21.13,7.05t21.14-7.05a23.09,23.09,0,0,0,8-17.84,22.85,22.85,0,0,0-7.8-17.69q-7.79-7.2-21.29-7.19-13.33,0-21.13,7a23,23,0,0,0-7.8,17.84A23.29,23.29,0,0,0,496.53,283.05Z"/><path class="cls-1" d="M839.89,291.42q15.81,0,21.5-7.68a8.89,8.89,0,0,1,7.14-3.61H879.1A27.6,27.6,0,0,1,866,297.8q-10.24,6.39-26.14,6.39-19.75,0-31.79-10.4-11.88-10.4-11.88-27.62,0-17.69,11.88-28.37Q820,227,838.7,227q17.38,0,28.81,9.65,11.6,9.51,11.74,27.77v.07a5.28,5.28,0,0,1-5.28,5.28H814.85a2.4,2.4,0,0,0-2.37,2.81,21.16,21.16,0,0,0,7.65,12.94Q827.42,291.42,839.89,291.42Zm16.49-46.64q-6.54-5.06-17.68-5.05t-18.12,5.2a21.13,21.13,0,0,0-7.49,10.17,2.42,2.42,0,0,0,2.28,3.2h45.48a2.42,2.42,0,0,0,2.34-3A18.18,18.18,0,0,0,856.38,244.78Z"/><path class="cls-1" d="M216.28,218.59l-18.76,3.78-6.47,19.53L215,230.27Z"/><path class="cls-1" d="M143.85,218.59l18.76,3.78,6.47,19.53-23.94-11.63Z"/><path class="cls-2" d="M228.32,252.14a46.67,46.67,0,0,0-10.72,19.11,103.09,103.09,0,0,0,17.48,38.46c5.48-6.39,15.07-20.5,12.54-38.66a47.1,47.1,0,0,0-12.09-25.14A44.7,44.7,0,0,0,228.32,252.14Z"/><path class="cls-2" d="M157.12,189.22a57,57,0,0,1,8.47,5A59.43,59.43,0,0,1,179.41,208a56.23,56.23,0,0,1,12.4-12.52A57.81,57.81,0,0,1,203,189.21a50.18,50.18,0,0,0-45.86,0Z"/><path class="cls-1" d="M256.47,269.81c-2.29-16.43-11.63-27.52-17.09-32.73v-3a59.08,59.08,0,0,0-15.22-39.62,15.42,15.42,0,0,0,1.7-.76,15.78,15.78,0,0,0,7.57-8.08,14.38,14.38,0,0,0,1-5.28,122.64,122.64,0,0,0-20.85,4.82,59.17,59.17,0,0,0-66.82-.13,100.82,100.82,0,0,0-21-4.89A14.89,14.89,0,0,0,127,186a17,17,0,0,0,6.17,6.93,20.44,20.44,0,0,0,2.65,1.61,59.07,59.07,0,0,0-15.11,39.5v15.68a75.61,75.61,0,0,0,75.52,75.52h34.84a8.27,8.27,0,0,0,8.14-6.89C244.5,313,259.92,294.66,256.47,269.81Zm-76.4-86.14A50.06,50.06,0,0,1,203,189.21a57.81,57.81,0,0,0-11.17,6.27A56.23,56.23,0,0,0,179.41,208a59.43,59.43,0,0,0-13.82-13.8,57,57,0,0,0-8.47-5A50,50,0,0,1,180.07,183.67Zm16.2,132.66a66.66,66.66,0,0,1-66.59-66.59V234.06a50.23,50.23,0,0,1,16-36.77,51,51,0,0,1,11.91,5.48,51.85,51.85,0,0,1,14.11,13.12,52.66,52.66,0,0,1,7.65,14.88,54.74,54.74,0,0,1,7.51-14.46c2.73-3.75,6.93-9.53,14.33-13.61a81.68,81.68,0,0,1,13.14-5.55,50.26,50.26,0,0,1,16.13,36.91v4.51A54.17,54.17,0,0,0,221.8,246a55.75,55.75,0,0,0-13.12,24,4.52,4.52,0,0,0,0,2.07,111.06,111.06,0,0,0,20.29,44.26ZM239.38,304h0a59.46,59.46,0,0,1-4.3,5.7,105.72,105.72,0,0,1-6.77-10.52h0c-.69-1.23-1.35-2.46-2-3.71a103.6,103.6,0,0,1-8.72-24.23,46.67,46.67,0,0,1,10.72-19.11c.68-.73,1.4-1.43,2.13-2.11h0a44.81,44.81,0,0,1,5.08-4.12,52.35,52.35,0,0,1,3.85,4.76h0c.44.62.88,1.27,1.31,1.94l0,0c.43.67.85,1.36,1.26,2.08a.83.83,0,0,1,.07.13c.37.65.73,1.32,1.09,2l.16.32c.37.74.73,1.5,1.07,2.29a2.44,2.44,0,0,0,.1.24q.43,1,.84,2.13c.07.19.14.37.2.56.29.81.56,1.65.81,2.51l.06.23c.22.78.42,1.59.6,2.41l.15.7c.19.91.36,1.83.49,2.79s.24,2,.31,3c0,.31,0,.6,0,.91,0,.71.05,1.43.05,2.13,0,.31,0,.61,0,.92q0,1.2-.12,2.37c0,.16,0,.32,0,.48-.08.93-.2,1.84-.33,2.74,0,.26-.09.51-.14.76-.11.65-.23,1.29-.37,1.92-.06.3-.13.6-.2.89-.14.62-.3,1.22-.47,1.81-.07.25-.13.5-.2.75-.24.79-.49,1.56-.76,2.31-.09.28-.2.54-.3.81-.18.49-.37,1-.57,1.47q-.2.5-.42,1c-.17.4-.34.79-.52,1.17s-.31.68-.47,1-.36.69-.53,1c-.35.67-.7,1.32-1.06,1.95l-.34.6c-.24.41-.48.81-.73,1.21-.09.15-.18.3-.28.45-.26.42-.53.83-.79,1.23Z"/></svg>