<svg viewBox="0 0 1000 1000" xmlns="http://www.w3.org/2000/svg"><path d="m633.28 347.29-91.17 18.4-31.46 94.91 116.35-56.51q3.16-28.41 6.28-56.8z" fill="#fff"/><path d="m281.21 347.29 91.18 18.4 31.46 94.91-116.37-56.51z" fill="#fff"/><path d="m691.82 510.4a227.35 227.35 0 0 0 -52.11 92.9 501.94 501.94 0 0 0 85 187c26.63-31.07 73.26-99.64 61-188-7.88-56.65-36.57-97.9-58.79-122.21a221.13 221.13 0 0 0 -35.1 30.31z" fill="#8282ff"/><path d="m345.68 204.54a272.64 272.64 0 0 1 41.2 24.2 289.92 289.92 0 0 1 67.2 67.07 272.75 272.75 0 0 1 60.27-60.87c10-7.32 25.83-17.79 54.29-30.49a244 244 0 0 0 -223 .09z" fill="#8282ff"/><path d="m828.67 596.33c-11.12-79.92-56.53-133.8-83.07-159.14v-14.7a287.15 287.15 0 0 0 -74-192.59 80.08 80.08 0 0 0 8.25-3.68c6.15-3.22 27.15-14.56 36.84-39.28a70.72 70.72 0 0 0 4.76-25.7 598.89 598.89 0 0 0 -101.37 23.44 287.66 287.66 0 0 0 -324.82-.61 488.92 488.92 0 0 0 -102.26-23.77 73.44 73.44 0 0 0 6.46 28.7c8.27 18.24 22.09 28.07 30 33.7a104.58 104.58 0 0 0 12.87 7.83 287.17 287.17 0 0 0 -73.44 192v76.25c0 202.43 164.69 367.12 367.13 367.12h169.38a40.21 40.21 0 0 0 39.6-33.54c25.5-26.36 100.48-115.24 83.67-236.03zm-371.42-418.79a243.29 243.29 0 0 1 111.39 26.91c-28.46 12.7-44.27 23.17-54.29 30.49a272.75 272.75 0 0 0 -60.27 60.87 289.92 289.92 0 0 0 -67.2-67.07 272.64 272.64 0 0 0 -41.2-24.2 243.41 243.41 0 0 1 111.57-27zm78.75 644.92c-178.51 0-323.73-145.22-323.73-323.72v-76.25a244.26 244.26 0 0 1 77.73-178.74 248.49 248.49 0 0 1 57.92 26.65 253.65 253.65 0 0 1 105.8 136.11 266.11 266.11 0 0 1 36.51-70.28c13.25-18.22 33.7-46.33 69.68-66.17 15.12-8.34 39-18.9 63.86-27a244.31 244.31 0 0 1 78.42 179.42v22a264.45 264.45 0 0 0 -42.05 36.28c-30.14 32.24-52.24 72.49-63.77 116.46a21.75 21.75 0 0 0 -.23 10 541.14 541.14 0 0 0 98.64 215.19zm209.6-59.89a286.71 286.71 0 0 1 -20.89 27.69 504.55 504.55 0 0 1 -32.91-51.12q-5-8.94-9.66-18a503.47 503.47 0 0 1 -42.43-117.84 227.35 227.35 0 0 1 52.11-92.9c3.33-3.55 6.81-6.94 10.37-10.27a223 223 0 0 1 24.7-20 247.89 247.89 0 0 1 18.71 23.17q3.21 4.5 6.37 9.41l.14.21q3.14 4.86 6.15 10.11c.12.21.23.42.35.62 1.8 3.15 3.55 6.42 5.26 9.78.26.53.54 1 .8 1.57 1.79 3.59 3.53 7.28 5.18 11.1l.48 1.17q2.16 5.06 4.1 10.39c.33.89.66 1.78 1 2.68 1.4 4 2.73 8 3.94 12.21.1.37.19.76.3 1.13 1.07 3.81 2 7.72 2.91 11.7.26 1.13.5 2.26.73 3.4.91 4.43 1.74 8.93 2.39 13.56.7 5 1.15 9.93 1.48 14.81.1 1.48.15 2.93.22 4.4.16 3.49.25 7 .24 10.36v4.48q-.14 5.83-.59 11.52c-.06.78-.08 1.57-.15 2.35-.4 4.52-1 8.95-1.63 13.31-.2 1.25-.43 2.47-.65 3.71-.54 3.15-1.13 6.26-1.79 9.33-.32 1.45-.64 2.9-1 4.33-.71 3-1.47 5.91-2.29 8.81-.33 1.2-.64 2.43-1 3.62q-1.71 5.74-3.65 11.25c-.47 1.33-1 2.6-1.47 3.91-.9 2.41-1.81 4.8-2.77 7.14-.67 1.63-1.35 3.23-2 4.83-.84 1.93-1.69 3.82-2.56 5.69-.76 1.64-1.51 3.29-2.29 4.89s-1.71 3.38-2.58 5.05q-2.52 4.92-5.14 9.52c-.55 1-1.09 2-1.64 2.9-1.17 2-2.35 3.94-3.53 5.86l-1.38 2.21c-1.28 2-2.56 4-3.85 6z" fill="#fff"/></svg>