<svg width="50" height="25" viewBox="0 0 1744 790" fill="none" xmlns="http://www.w3.org/2000/svg">
<path fill-rule="evenodd" clip-rule="evenodd" d="M369.938 109.145L480.875 374.381C485.371 383.59 489.722 393.451 494 403.892C514.375 453.415 539.39 513.235 564.333 572.909C585.36 623.158 606.388 673.551 629.953 730.76L652.865 785.504H652.43L653.663 788.549H514.447L507.124 770.712C492.114 734.385 469.999 681.382 447.522 627.58C424.827 573.272 401.986 518.455 374.941 452.69C369.938 440.436 352.753 402.949 344.777 393.306C340.427 388.013 333.829 384.677 326.433 384.677C318.312 384.677 311.206 388.738 306.928 394.901C296.487 410.055 283.145 440.001 275.604 458.418L263.786 487.132C251.242 517.803 238.553 548.836 229.271 571.024C213.247 609.236 199.543 642.227 187.507 671.593L139.071 789.927L0 789.492L16.0243 750.337C27.0456 723.292 44.8102 679.932 68.4479 622.722C84.9073 582.77 99.9891 546.444 110.358 521.646C126.745 482.564 160.171 406.575 174.745 373.584C198.963 318.55 240.945 271.637 295.617 259.963L261.465 178.319L251.677 157.436C243.556 142.354 221.586 130.318 198.6 130.318L170.25 129.956V0.890507L198.165 0.0930213C281.55 -2.08223 340.499 33.8818 369.938 109.145Z" fill="white"/>
<path fill-rule="evenodd" clip-rule="evenodd" d="M921.946 652.303C917.668 658.466 910.562 662.527 902.441 662.527C895.045 662.527 888.447 659.119 884.097 653.898C876.121 644.254 859.009 606.768 853.933 594.514C826.888 528.749 804.047 474.005 781.352 419.624C758.875 365.822 736.76 312.746 721.75 276.492L714.427 258.655H575.211L591.453 298.172C618.136 363.139 641.411 418.826 664.614 474.367C689.557 534.042 714.572 593.861 734.947 643.385C743.793 664.919 752.856 683.627 762.573 699.796C795.636 754.612 838.924 789.489 905.777 789.996C973.935 790.504 1026 737.5 1054.2 673.62C1068.78 640.557 1102.27 564.64 1118.59 525.558C1128.74 501.268 1143.39 465.956 1159.41 427.092C1175.44 466.029 1190.08 501.341 1200.23 525.558C1216.62 564.64 1250.05 640.629 1264.62 673.62C1292.75 737.5 1344.89 790.504 1413.05 789.996C1479.9 789.489 1523.26 754.612 1556.25 699.796C1565.97 683.627 1575.03 664.919 1583.88 643.385C1604.25 593.861 1629.27 534.042 1654.21 474.367C1677.41 418.899 1700.69 363.139 1727.37 298.172L1743.61 258.655H1604.4L1597.07 276.492C1582.06 312.819 1559.95 365.822 1537.47 419.624C1514.77 474.005 1491.93 528.749 1464.89 594.514C1459.89 606.768 1442.7 644.254 1434.73 653.898C1430.37 659.191 1423.78 662.527 1416.45 662.527C1408.33 662.527 1401.23 658.466 1396.95 652.303C1390.93 643.602 1379.76 619.457 1374.33 608.218C1371.14 601.62 1368.24 595.094 1365.62 588.786L1353.81 560.072C1341.26 529.401 1328.57 498.368 1319.29 476.18C1303.27 437.968 1289.56 404.977 1277.53 375.611L1229.09 257.277L1159.48 257.495L1089.88 257.277L1041.44 375.611C1029.33 404.977 1015.63 437.968 999.675 476.18C990.394 498.368 977.705 529.401 965.089 560.072L953.27 588.786C950.659 595.094 947.759 601.62 944.569 608.218C939.131 619.529 927.964 643.674 921.946 652.303Z" fill="white"/>
</svg>
