<svg xmlns="http://www.w3.org/2000/svg" xmlns:xlink="http://www.w3.org/1999/xlink" version="1.1" width="1000" height="1000" viewBox="0 0 1000 1000" xml:space="preserve">
<desc>Created with Fabric.js 3.5.0</desc>
<defs>
</defs>
<rect x="0" y="0" width="100%" height="100%" fill="#ffffff"/>
<g transform="matrix(0.1077 0 0 0.1077 54.8193 54.8193)" id="9503">
<g style="" vector-effect="non-scaling-stroke">
		<g transform="matrix(1 0 0 1 0 0)">
<path style="stroke: none; stroke-width: 1; stroke-dasharray: none; stroke-linecap: butt; stroke-dashoffset: 0; stroke-linejoin: miter; stroke-miterlimit: 4; is-custom-font: none; font-file-url: none; fill: rgb(254,254,254); fill-rule: nonzero; opacity: 1;" transform=" translate(-509, -509)" d="M 0 0 C 335.94 0 671.88 0 1018 0 C 1018 335.94 1018 671.88 1018 1018 C 682.06 1018 346.12 1018 0 1018 C 0 682.06 0 346.12 0 0 Z" stroke-linecap="round"/>
</g>
		<g transform="matrix(1 0 0 1 -0.1328 -0.2132)">
<path style="stroke: none; stroke-width: 1; stroke-dasharray: none; stroke-linecap: butt; stroke-dashoffset: 0; stroke-linejoin: miter; stroke-miterlimit: 4; is-custom-font: none; font-file-url: none; fill: rgb(0,0,0); fill-rule: nonzero; opacity: 1;" transform=" translate(86.1328, -332.7868)" d="M 0 0 C 0.82371094 0.41169434 1.64742187 0.82338867 2.49609375 1.24755859 C 12.19410737 6.14632943 22.01508444 11.23048267 30.5390625 18.0234375 C 35.91389751 22.31762542 35.91389751 22.31762542 42.5 23.1875 C 44.34348691 22.84202765 46.17593309 22.436549 48 22 C 49.39133373 21.70422618 50.78332007 21.41151338 52.17578125 21.12109375 C 58.04995117 19.87233847 63.89434862 18.5043872 69.734375 17.10546875 C 75.06304617 15.83584405 80.23333354 14.68103091 85.70703125 14.30859375 C 88.18855512 14.02621095 88.18855512 14.02621095 91.2734375 13.10546875 C 97.31002023 11.54951834 103.5080636 10.90855952 109.68334961 10.14013672 C 111.8254034 9.87339318 113.96643559 9.59938717 116.10742188 9.32421875 C 126.53112443 8 126.53112443 8 130 8 C 130.63840606 27.47138489 122.9695287 43.66193389 109.8125 57.75 C 104.22282923 63.110912 97.605666 67.02532473 91 71 C 93.71147114 74.63907968 96.42174385 78.26935873 99.23828125 81.828125 C 134.92577745 127.13473899 159.66047466 187.55066602 158.96875 245.84375 C 158.00216363 260.9043764 158.00216363 260.9043764 164.00024414 273.93725586 C 166.54008905 276.18476099 169.19912668 278.0838015 172 280 C 173.9296875 281.93359375 173.9296875 281.93359375 175.5 283.8125 C 176.03238281 284.43898438 176.56476562 285.06546875 177.11328125 285.7109375 C 177.73589844 286.46632813 178.35851562 287.22171875 179 288 C 179.62527588 288.75458496 179.62527588 288.75458496 180.26318359 289.52441406 C 193.09873108 305.07697525 204.33901558 321.28883903 214 339 C 214.54068115 339.98637451 214.54068115 339.98637451 215.09228516 340.99267578 C 233.08828521 374.23923159 244.992968 413.39143782 245.203125 451.35546875 C 245.21013931 452.2115271 245.21715363 453.06758545 245.22438049 453.94958496 C 245.24177398 456.69561092 245.24823257 459.44142098 245.25 462.1875 C 245.25101212 463.59752792 245.25101212 463.59752792 245.25204468 465.03604126 C 245.23584307 479.24424372 244.68529265 493.01387655 242 507 C 241.8443457 507.88397461 241.68869141 508.76794922 241.52832031 509.67871094 C 236.90575575 535.67025661 227.724493 560.42623959 216 584 C 215.59313965 584.82999512 215.1862793 585.65999023 214.76708984 586.51513672 C 206.09027924 604.10672203 195.7398743 621.14544337 183.33203125 636.36474609 C 181.8130818 638.22946813 180.31298113 640.10867024 178.8125 641.98828125 C 177.68840381 643.38874676 176.56341295 644.78849466 175.4375 646.1875 C 174.9314624 646.8170459 174.4254248 647.4465918 173.90405273 648.09521484 C 173.14523804 649.02841553 173.14523804 649.02841553 172.37109375 649.98046875 C 171.87903442 650.59569901 171.3869751 651.21092926 170.88000488 651.84480286 C 169 654 169 654 166.73939514 655.99555969 C 161.52207761 660.84717037 159.20258272 664.83292844 158.90234375 671.9765625 C 158.8387902 674.86272109 158.88014079 677.73909467 158.9375 680.625 C 158.93441892 682.12110772 158.9272876 683.61721282 158.91601562 685.11328125 C 158.8973537 688.74334737 158.93335172 692.37037952 159 696 C 129.39460273 696.06871803 99.78920818 696.12167258 70.18374811 696.15319599 C 66.673524 696.15694726 63.16330005 696.16083031 59.65307617 696.16479492 C 58.95437347 696.16558185 58.25567076 696.16636878 57.53579525 696.16717956 C 46.28285507 696.18016633 35.02996176 696.2037822 23.77704921 696.23145839 C 12.19542367 696.25970144 0.61382513 696.27599181 -10.96783322 696.28226548 C -17.45828562 696.28614815 -23.94863241 696.2951571 -30.43905067 696.31719017 C -82.1397205 696.48592619 -82.1397205 696.48592619 -104 693 C -105.59163475 692.77220927 -107.18364697 692.54703591 -108.77607727 692.32487488 C -146.7879425 687.0147049 -184.17347482 674.84666643 -218.10791016 656.98876953 C -220.05568138 655.97090199 -222.0164291 654.98216069 -223.98046875 653.99609375 C -242.10857936 644.78775436 -259.02285047 633.54594405 -275 621 C -275.89460937 620.30648437 -276.78921875 619.61296875 -277.7109375 618.8984375 C -288.7414745 610.22393753 -299.23521002 601.07921971 -309 591 C -311.57963749 588.4036928 -314.1761305 585.82829737 -316.796875 583.2734375 C -323.35855946 576.8563662 -329.3014974 570.2072124 -335 563 C -335.88414584 561.93795694 -336.7709935 560.87815886 -337.66015625 559.8203125 C -377.88637369 511.51441132 -402.76609266 451.00240784 -413.3125 389.4375 C -413.45977539 388.58478516 -413.60705078 387.73207031 -413.75878906 386.85351562 C -416.75453773 368.12131671 -417.32431013 349.41594315 -417.3359375 330.48046875 C -417.34239103 327.96397329 -417.34912111 325.44747853 -417.35610962 322.9309845 C -417.36799826 317.68256904 -417.37179938 312.43421896 -417.37060547 307.18579102 C -417.37044331 301.87315195 -417.38428397 296.56085912 -417.41162109 291.24829102 C -417.70592569 233.14285408 -417.70592569 233.14285408 -413 208 C -412.76228882 206.70408432 -412.76228882 206.70408432 -412.51977539 205.38198853 C -411.63484592 200.71972785 -410.55041362 196.14583381 -409.3125 191.5625 C -408.96575618 190.23618213 -408.6190785 188.90984697 -408.27246094 187.58349609 C -397.41164198 146.73274312 -378.07256588 109.25130548 -351.47607422 76.46289062 C -349.29546592 73.7591006 -347.3795188 71.20079363 -346 68 C -347.03447266 67.29037109 -347.03447266 67.29037109 -348.08984375 66.56640625 C -363.68257247 55.5937453 -376.09591914 40.90378386 -380.375 21.8125 C -380.90101582 18.41107991 -381.0676594 15.13942536 -381.0390625 11.69921875 C -381.03060303 10.37216919 -381.03060303 10.37216919 -381.02197266 9.01831055 C -381.01472168 8.35226807 -381.0074707 7.68622559 -381 7 C -357.5960851 9.97541851 -334.40509937 13.14524043 -311.50854492 18.98193359 C -308.67978104 19.69499699 -305.84725094 20.36506304 -303 21 C -302.19111328 21.1853833 -301.38222656 21.3707666 -300.54882812 21.56176758 C -295.36929925 22.48187357 -292.54194657 21.78375245 -288.23388672 18.78686523 C -287.5792041 18.30032471 -286.92452148 17.81378418 -286.25 17.3125 C -284.7610825 16.28431105 -283.26873682 15.26107306 -281.7734375 14.2421875 C -280.99581055 13.7069043 -280.21818359 13.17162109 -279.41699219 12.62011719 C -264.87805462 2.87462328 -249.19672315 -4.4846455 -233 -11 C -232.17790039 -11.33370605 -231.35580078 -11.66741211 -230.50878906 -12.01123047 C -156.75792436 -41.61160835 -70.45615603 -35.21499181 0 0 Z" stroke-linecap="round"/>
</g>
		<g transform="matrix(1 0 0 1 -42.4053 29.7511)">
<path style="stroke: none; stroke-width: 1; stroke-dasharray: none; stroke-linecap: butt; stroke-dashoffset: 0; stroke-linejoin: miter; stroke-miterlimit: 4; is-custom-font: none; font-file-url: none; fill: rgb(254,254,254); fill-rule: nonzero; opacity: 1;" transform=" translate(-145.6187, -271.8951)" d="M 0 0 C 5.15540471 1.95044619 10.13019594 4.17189284 15.08642578 6.58154297 C 16.17189697 7.10651367 17.25736816 7.63148438 18.37573242 8.17236328 C 31.96205224 14.89792707 44.54489901 23.22665058 56.02392578 33.14404297 C 56.81541016 33.82595703 57.60689453 34.50787109 58.42236328 35.21044922 C 60.99727528 37.48075806 63.51756225 39.79829588 66.02392578 42.14404297 C 66.96107422 43.01544922 67.89822266 43.88685547 68.86376953 44.78466797 C 89.45092165 64.3723113 104.74128519 89.92095444 114.32861328 116.55029297 C 116.41018106 122.28685646 118.73401111 127.92579576 121.02392578 133.58154297 C 124.06654845 141.12581721 126.99083207 148.67367917 129.61450195 156.37304688 C 132.56894897 164.92142591 135.97903064 173.30312493 139.33032227 181.7019043 C 139.79253174 182.86488037 140.25474121 184.02785645 140.73095703 185.22607422 C 141.14837158 186.26997314 141.56578613 187.31387207 141.99584961 188.3894043 C 142.83642709 190.6416569 143.51105974 192.8001644 144.02392578 195.14404297 C 150.01907181 180.55785814 155.93130215 165.94171325 161.71142578 151.26904297 C 161.98864471 150.56575867 162.26586365 149.86247437 162.55148315 149.13787842 C 165.53026478 141.57477395 168.47198029 134.00024088 171.31811523 126.38598633 C 191.85450245 71.50163908 227.40756683 28.17356653 281.16357422 3.14794922 C 293.72703936 -2.47730874 293.72703936 -2.47730874 299.02392578 -0.85595703 C 301.12939453 0.73193359 301.12939453 0.73193359 303.21142578 2.80029297 C 303.98623291 3.56696289 304.76104004 4.33363281 305.55932617 5.12353516 C 306.37264404 5.95530273 307.18596191 6.78707031 308.02392578 7.64404297 C 308.86753662 8.49901367 309.71114746 9.35398437 310.58032227 10.23486328 C 318.14736704 18.03457397 324.76307834 26.27873591 331.02392578 35.14404297 C 331.45431152 35.73507812 331.88469727 36.32611328 332.328125 36.93505859 C 343.93757345 52.89635556 353.74424705 71.42883142 360.02392578 90.14404297 C 360.30429687 90.97548828 360.58466797 91.80693359 360.87353516 92.66357422 C 365.3987742 106.30683223 368.83644401 119.93824546 371.02392578 134.14404297 C 371.14106934 134.86285645 371.25821289 135.58166992 371.37890625 136.32226562 C 372.25793457 141.91643845 372.68848812 147.49360854 373.02392578 153.14404297 C 373.09181305 154.12929962 373.09181305 154.12929962 373.16107178 155.13446045 C 373.48384463 159.82712167 373.71821315 164.51463524 373.86877441 169.21603394 C 373.92985135 170.81660787 374.01309537 172.41651133 374.11999512 174.01467896 C 374.91834753 186.47822861 374.91834753 186.47822861 371.76699829 190.91278076 C 368.2749805 194.59906203 364.23265361 197.34013921 360.02392578 200.14404297 C 358.60625869 201.32668414 357.2034147 202.52817173 355.83642578 203.76904297 C 355.22025391 204.31431641 354.60408203 204.85958984 353.96923828 205.42138672 C 353.32728516 205.98986328 352.68533203 206.55833984 352.02392578 207.14404297 C 351.25822266 207.80533203 350.49251953 208.46662109 349.70361328 209.14794922 C 338.44271443 219.01447345 329.01474617 230.22351796 320.02392578 242.14404297 C 319.60256348 242.69785645 319.18120117 243.25166992 318.74707031 243.82226562 C 299.95933391 268.66961556 285.879571 298.14755935 276.89892578 327.89404297 C 276.6036499 328.84472656 276.30837402 329.79541016 276.00415039 330.77490234 C 272.46737884 343.10560451 274.17393766 353.73043249 277.39892578 365.95654297 C 277.57554749 366.64324066 277.75216919 367.32993835 277.93414307 368.03744507 C 293.18270496 427.29461155 318.08905944 483.25328265 351.36157227 534.54956055 C 352.79890542 536.79284729 354.21687821 539.04628403 355.62782288 541.30619812 C 356.07688523 542.02528697 356.52594759 542.74437582 356.9886179 543.48525524 C 357.3302695 544.03265519 357.6719211 544.58005514 358.02392578 545.14404297 C 337.97599065 545.23823373 317.92810151 545.30838297 297.87998962 545.35129166 C 288.56754073 545.37176034 279.25523071 545.39957321 269.94287109 545.44580078 C 261.80923445 545.48615717 253.67569854 545.51158912 245.54196453 545.52039695 C 241.25059694 545.52553087 236.95951704 545.53725167 232.66824341 545.5669632 C 204.49231783 545.75429151 176.82527526 544.14520283 149.39892578 537.08154297 C 148.64584137 536.89351105 147.89275696 536.70547913 147.11685181 536.51174927 C 126.37226948 531.31434484 105.71779465 524.48014782 86.91845703 514.1640625 C 84.82836173 513.03875088 82.71192811 511.97823371 80.58642578 510.92138672 C 63.20668201 502.19273284 47.15982655 491.33220616 32.02392578 479.14404297 C 30.68587891 478.09410156 30.68587891 478.09410156 29.32080078 477.02294922 C -29.09302303 430.47977089 -67.28825828 362.45754962 -79.41357422 289.08154297 C -79.53935852 288.32122772 -79.66514282 287.56091248 -79.79473877 286.77755737 C -81.84062894 274.24201879 -83.1220601 261.8717719 -83.13720703 249.15673828 C -83.14465439 247.61722755 -83.14465439 247.61722755 -83.1522522 246.0466156 C -83.16672085 242.68845926 -83.17365226 239.33035022 -83.17919922 235.97216797 C -83.1820266 234.81057915 -83.18485397 233.64899033 -83.18776703 232.45220184 C -83.20270211 226.29723387 -83.21196579 220.14228896 -83.21630859 213.98730469 C -83.22176581 207.70109242 -83.24575218 201.41509973 -83.27428055 195.12895584 C -83.29311535 190.23318919 -83.2981236 185.33747307 -83.29964447 180.44167328 C -83.30262791 178.12814899 -83.3105058 175.81462463 -83.32382965 173.50113678 C -83.6083482 120.27419757 -68.51324752 69.05341105 -34.97607422 27.14404297 C -34.21810547 26.17466797 -33.46013672 25.20529297 -32.67919922 24.20654297 C -28.40765999 18.8437346 -23.86864363 13.74756861 -19.22607422 8.70654297 C -18.4111853 7.81878174 -18.4111853 7.81878174 -17.57983398 6.91308594 C -16.54226563 5.80071058 -15.48922617 4.70251451 -14.41943359 3.62109375 C -13.1455443 2.31746888 -11.95189972 0.93646134 -10.77294922 -0.45361328 C -6.72137112 -2.48506096 -4.20073549 -1.36181166 0 0 Z" stroke-linecap="round"/>
</g>
		<g transform="matrix(1 0 0 1 209.1919 132)">
<path style="stroke: none; stroke-width: 1; stroke-dasharray: none; stroke-linecap: butt; stroke-dashoffset: 0; stroke-linejoin: miter; stroke-miterlimit: 4; is-custom-font: none; font-file-url: none; fill: rgb(129,128,253); fill-rule: nonzero; opacity: 1;" transform=" translate(9.8081, -136)" d="M 0 0 C 4.83339891 3.39232997 7.88203302 7.5556652 11.25 12.3125 C 11.82065186 13.11284668 12.39130371 13.91319336 12.97924805 14.73779297 C 27.10802192 34.77525227 37.82620011 56.53731392 45 80 C 45.54333984 81.7634375 45.54333984 81.7634375 46.09765625 83.5625 C 60.95822073 136.9023208 49.34790733 193.06104681 22.91699219 240.57104492 C 17.56886242 249.91484843 11.51905574 258.72426365 5.15405273 267.40039062 C 4.06635535 268.90802618 3.03121296 270.45318056 2 272 C -1.78915606 270.52552405 -3.17424238 268.62862247 -5.25 265.1875 C -6.15685547 263.7025 -6.15685547 263.7025 -7.08203125 262.1875 C -7.71496094 261.135625 -8.34789062 260.08375 -9 259 C -10.31248125 256.89582164 -11.62498162 254.7916552 -12.9375 252.6875 C -16.69215809 246.55656691 -20.31915035 240.36208986 -23.828125 234.08789062 C -24.65631345 232.61233488 -25.49020731 231.13997453 -26.328125 229.66992188 C -46.48497856 194.25698822 -60.46965925 156.25051281 -71 117 C -71.18908936 116.3287207 -71.37817871 115.65744141 -71.57299805 114.96582031 C -73.1928711 107.50829156 -71.76937774 100.82200099 -69 93.875 C -68.68530762 93.05733154 -68.37061523 92.23966309 -68.04638672 91.3972168 C -64.86966296 83.33027795 -61.10443959 75.6293171 -57 68 C -56.64679687 67.33371582 -56.29359375 66.66743164 -55.9296875 65.98095703 C -42.47984701 40.72017298 -23.27514472 16.87019089 0 0 Z" stroke-linecap="round"/>
</g>
		<g transform="matrix(1 0 0 1 -43 -249.371)">
<path style="stroke: none; stroke-width: 1; stroke-dasharray: none; stroke-linecap: butt; stroke-dashoffset: 0; stroke-linejoin: miter; stroke-miterlimit: 4; is-custom-font: none; font-file-url: none; fill: rgb(129,128,253); fill-rule: nonzero; opacity: 1;" transform=" translate(93, -34.6289)" d="M 0 0 C 0 0.66 0 1.32 0 2 C -0.51272461 2.25579834 -1.02544922 2.51159668 -1.55371094 2.77514648 C -15.4578084 9.76299842 -27.22328708 17.29925211 -38.71484375 27.8984375 C -40.71057811 29.73383081 -42.74462803 31.49727345 -44.8125 33.25 C -54.46370858 41.68992329 -63.05955334 50.94505824 -71 61 C -72.43708578 62.7086818 -73.874596 64.4170067 -75.3125 66.125 C -81.30861159 73.42877422 -86.62715636 81.23284102 -92 89 C -95.77154446 85.42906961 -98.80861212 81.66005792 -101.75 77.375 C -108.18381562 68.19931686 -115.25755773 59.68649058 -122.8125 51.41015625 C -124.93266617 49.07418746 -126.9969731 46.69673125 -129.0625 44.3125 C -132.11597678 40.87433323 -135.31501698 37.82491301 -138.828125 34.86328125 C -141.31254471 32.73186362 -143.67667131 30.49112606 -146.0625 28.25 C -158.19649022 17.24784975 -171.71265238 8.92300473 -186 1 C -172.58909414 -12.41090586 -140.16967288 -15.75756118 -122 -18 C -121.31091553 -18.0920874 -120.62183105 -18.1841748 -119.91186523 -18.27905273 C -78.58492032 -23.18120447 -38.27923422 -15.43273475 0 0 Z" stroke-linecap="round"/>
</g>
		<g transform="matrix(1 0 0 1 -154.1243 -93)">
<path style="stroke: none; stroke-width: 1; stroke-dasharray: none; stroke-linecap: butt; stroke-dashoffset: 0; stroke-linejoin: miter; stroke-miterlimit: 4; is-custom-font: none; font-file-url: none; fill: rgb(2,2,2); fill-rule: nonzero; opacity: 1;" transform=" translate(-58.8757, -55)" d="M 0 0 C 20.13599861 3.7204763 40.24130671 7.58942815 60.31277466 11.64434814 C 62.52103179 12.08980428 64.72975412 12.53296046 66.93893433 12.97381592 C 70.0570442 13.59692787 73.17323964 14.22884547 76.2890625 14.86328125 C 77.22807907 15.04950546 78.16709564 15.23572968 79.13456726 15.42759705 C 79.99717667 15.60529129 80.85978607 15.78298553 81.74853516 15.96606445 C 82.50075348 16.11815872 83.2529718 16.27025299 84.02798462 16.42695618 C 86 17 86 17 89 19 C 90.19355774 21.73216248 90.19355774 21.73216248 91.35668945 25.25952148 C 91.67938812 26.22367477 91.67938812 26.22367477 92.00860596 27.20730591 C 92.72025581 29.34203323 93.41678683 31.48137838 94.11328125 33.62109375 C 94.60940678 35.12000649 95.10642585 36.61862374 95.60429382 38.11695862 C 96.91832005 42.08012921 98.2194563 46.04742075 99.51818848 50.015625 C 100.81837598 53.97992807 102.13159924 57.93990532 103.44335938 61.90039062 C 105.67152577 68.63434205 107.88336023 75.3734644 110.08058357 82.11757469 C 111.41091949 86.20056122 112.7530215 90.27941841 114.10302734 94.35595703 C 114.66698517 96.0821465 115.23036767 97.80852412 115.79296875 99.53515625 C 116.04274979 100.27986679 116.29253082 101.02457733 116.54988098 101.79185486 C 118.11444221 106.65667338 118.11444221 106.65667338 117 110 C 116.21336723 109.61441422 116.21336723 109.61441422 115.4108429 109.22103882 C 85.1139839 94.35407687 85.1139839 94.35407687 54.75 79.625 C 53.66146729 79.10059326 52.57293457 78.57618652 51.45141602 78.03588867 C 49.2150151 76.95864102 46.97860545 75.8814115 44.7421875 74.80419922 C 37.87733159 71.49565784 31.01700957 68.17776071 24.15930176 64.85443115 C 22.56291775 64.08123193 20.96616096 63.30880186 19.36901855 62.53717041 C 17.15652168 61.46813326 14.9452993 60.39650359 12.734375 59.32421875 C 12.06615723 59.00203873 11.39793945 58.6798587 10.70947266 58.34791565 C 6.11410085 56.11410085 6.11410085 56.11410085 5 55 C 4.76187148 53.68166257 4.58192403 52.35271267 4.42749023 51.02197266 C 4.27744789 49.75397324 4.27744789 49.75397324 4.12437439 48.46035767 C 4.02016678 47.53758026 3.91595917 46.61480286 3.80859375 45.6640625 C 3.64424583 44.24037857 3.64424583 44.24037857 3.47657776 42.78793335 C 3.24493569 40.76886988 3.01559078 38.74954178 2.78833008 36.72998047 C 2.44279986 33.6719058 2.08615938 30.61527225 1.72851562 27.55859375 C 1.50452425 25.59382787 1.28119703 23.62898613 1.05859375 21.6640625 C 0.95236191 20.7615274 0.84613007 19.85899231 0.73667908 18.92910767 C 0.03727842 12.59862108 -0.11663982 6.36645859 0 0 Z" stroke-linecap="round"/>
</g>
		<g transform="matrix(1 0 0 1 67.5043 -93)">
<path style="stroke: none; stroke-width: 1; stroke-dasharray: none; stroke-linecap: butt; stroke-dashoffset: 0; stroke-linejoin: miter; stroke-miterlimit: 4; is-custom-font: none; font-file-url: none; fill: rgb(1,1,1); fill-rule: nonzero; opacity: 1;" transform=" translate(59.4957, -55)" d="M 0 0 C 0.08380188 9.67603575 -0.45546581 19.25178639 -1.25732422 28.89282227 C -1.41909225 31.00573407 -1.55225504 33.12103083 -1.65673828 35.23754883 C -2.52028703 52.2589662 -2.52028703 52.2589662 -6.49484253 56.65237427 C -10.26100378 59.40981488 -14.44802971 60.86874356 -18.86419678 62.2718811 C -22.19140818 63.4061642 -25.21594951 65.03586143 -28.31640625 66.67578125 C -29.50936722 67.27852588 -30.7037976 67.87837078 -31.8996582 68.4753418 C -32.49622223 68.77467621 -33.09278625 69.07401062 -33.70742798 69.38241577 C -43.90049301 74.49294998 -54.11503873 79.54334348 -64.42138672 84.42260742 C -71.10551726 87.59480619 -77.755986 90.83138359 -84.3984375 94.08984375 C -85.32220688 94.54254135 -86.24597626 94.99523895 -87.19773865 95.46165466 C -90.96380863 97.30740092 -94.72982539 99.15320189 -98.49209595 101.00668335 C -101.14284104 102.31249043 -103.79582677 103.61364432 -106.44921875 104.9140625 C -107.25237518 105.31145126 -108.05553162 105.70884003 -108.88302612 106.11827087 C -110.00380051 106.66615013 -110.00380051 106.66615013 -111.1472168 107.22509766 C -111.79732224 107.54499664 -112.44742767 107.86489563 -113.11723328 108.19448853 C -115.0568426 109.02431919 -116.94298824 109.54506695 -119 110 C -111.89608049 87.80251104 -104.57384513 65.68982134 -96.98999023 43.65136719 C -96.68013184 42.74897812 -96.37027344 41.84658905 -96.05102539 40.91685486 C -95.47591597 39.24270408 -94.89916733 37.56911495 -94.3203125 35.89625549 C -92.6351042 30.99049821 -91.1538986 26.07481917 -89.83839417 21.05583191 C -89 19 -89 19 -86 17 C -83.28932793 16.32940661 -80.61071429 15.74351902 -77.87255859 15.21240234 C -77.04467331 15.04629959 -76.21678802 14.88019684 -75.36381531 14.70906067 C -72.62659659 14.16157259 -69.88758383 13.62369113 -67.1484375 13.0859375 C -65.24928846 12.70821125 -63.3502521 12.32991803 -61.45132446 11.95108032 C -56.45190341 10.95540778 -51.45088352 9.96799851 -46.44952393 8.9821167 C -42.35708651 8.17399578 -38.26580056 7.36013656 -34.17456627 6.54594994 C -25.74045138 4.86758204 -17.3055995 3.19288417 -8.86865234 1.52880859 C -8.08214798 1.37298813 -7.29564362 1.21716766 -6.48530579 1.05662537 C -1.11554729 0 -1.11554729 0 0 0 Z" stroke-linecap="round"/>
</g>
</g>
</g>
</svg>