<svg id="Layer_1" data-name="Layer 1" xmlns="http://www.w3.org/2000/svg" viewBox="0 0 1000 500"><defs><style>.cls-1{fill:#8282ff;}</style></defs><path d="M564.6,231.81c5.13,0,11.39-.78,16.16,0,2,.33,4.38,3,5.32,5.18,6,13.8,11.46,27.82,17.47,41.6a16.06,16.06,0,0,0,2.5,3.81,4.77,4.77,0,0,0,7.4-.08,16.08,16.08,0,0,0,2.21-3.54q9.09-21,17.49-42.29c1.6-4.11,3.72-5.34,8.07-5.23,13.59.32,13.49.16,18.78,13.1q7.68,18.79,15.83,37.4a6.2,6.2,0,0,0,.83,1.36,4.74,4.74,0,0,0,7.4,0,5.9,5.9,0,0,0,.76-1.24c6.37-14.57,12.79-29.13,18.51-44,2-5.22,4.74-7,10-6.43,3.57.36,7.2.07,11.92.07-2.58,6.42-4.69,11.95-7,17.39-5.88,13.85-11.62,27.76-17.85,41.44-3.91,8.59-10.65,14.21-20.51,14.25-9.53,0-15.52-5.95-19.31-13.92-5.35-11.24-10.12-22.76-15.6-35.2-3.83,8.92-7.23,17.13-10.88,25.22-2.21,4.88-4.34,9.91-7.34,14.3-1.76,2.6-8.59,9.83-17.92,9.8-8.66,0-16.94-6.51-20.95-16.16C580.53,269.62,571.93,250.84,564.6,231.81Z"/><path d="M750.77,231.69c-4.57-7.61-3.62-18.91-16.93-17.58V197.06c13.59-2.53,22.32,2.46,28.23,16.42,9.63,22.73,19.07,45.54,28.58,68.32,3,7.24,6,14.5,9.42,22.79-6.38,0-11.53.45-16.53-.23-1.83-.26-3.94-2.92-4.82-4.95-5.88-13.6-11.46-27.33-17.14-41a18.54,18.54,0,0,0-1.86-4.09,25,25,0,0,0-2-2.27,3.92,3.92,0,0,0-5.44-.21,7,7,0,0,0-1.78,2.26c-5.89,13.59-11.53,27.29-17.2,41-4.08,9.85-4.05,9.86-14.51,9.72-2.53,0-5.06,0-8.62,0,2.91-7.38,5.39-13.95,8.08-20.43,4.3-10.3,8.79-20.52,13.09-30.82C735.25,244.24,739.64,235.47,750.77,231.69Z"/><path d="M376.7,227.87,342,255a3.61,3.61,0,0,0-.6,5.08l35.29,44.71H363.06a11.68,11.68,0,0,1-9.1-4.36l-24.33-30.2a4.5,4.5,0,0,0-6.27-.72l-11.44,9v18.57a7.75,7.75,0,0,1-7.74,7.75h-8.72V195.55h2.29a14.17,14.17,0,0,1,14.17,14.18v49.38L350.34,231a15.74,15.74,0,0,1,9.48-3.17Z"/><path d="M456.35,234.6q-9.47-8.83-25.73-8.83a42.56,42.56,0,0,0-21.6,6,41.89,41.89,0,0,0-6.64,4.93l-.1-.24c-4-9.73-4-9.73-14.33-9.59-2.49,0,.11,0-3.4,0,.06.17.13.34.2.51v77.42h12a4.62,4.62,0,0,0,4.62-4.62V264.36q0-11.94,6.82-18,7-6,18-6,10.53,0,16.73,5.73,6.36,5.73,6.36,17.2v36.92a4.61,4.61,0,0,0,4.61,4.62h12V259.24Q465.8,243.28,456.35,234.6Z"/><path d="M519,304.81q-19.78,0-32.38-10.95t-12.59-28q0-17.1,12.44-28,12.6-10.93,32.53-10.94t32.54,10.94q12.59,11,12.59,28t-12.59,28Q539.07,304.81,519,304.81Zm-21.13-21.14q7.78,7.05,21.13,7t21.14-7a23.11,23.11,0,0,0,8-17.84,22.82,22.82,0,0,0-7.8-17.69q-7.78-7.2-21.29-7.2-13.34,0-21.13,7.05a23,23,0,0,0-7.8,17.84A23.31,23.31,0,0,0,497.85,283.67Z"/><path d="M841.21,292q15.81,0,21.5-7.68a8.92,8.92,0,0,1,7.14-3.61h10.57a27.62,27.62,0,0,1-13.07,17.68q-10.25,6.39-26.14,6.39-19.76,0-31.79-10.4-11.88-10.4-11.88-27.63,0-17.67,11.88-28.37T840,227.57q17.38,0,28.81,9.66,11.59,9.5,11.74,27.77v.07a5.29,5.29,0,0,1-5.28,5.28H816.17a2.4,2.4,0,0,0-2.37,2.8,21.16,21.16,0,0,0,7.65,12.94Q828.74,292,841.21,292ZM857.7,245.4q-6.54-5.06-17.68-5.05t-18.12,5.19a21.2,21.2,0,0,0-7.49,10.18,2.41,2.41,0,0,0,2.28,3.19h45.48a2.42,2.42,0,0,0,2.34-3A18.12,18.12,0,0,0,857.7,245.4Z"/><path d="M216.87,218.59l-18.76,3.78-6.47,19.53,23.94-11.63Z"/><path d="M144.45,218.59l18.75,3.78,6.47,19.53-23.93-11.63Z"/><path class="cls-1" d="M231,254.06a44.83,44.83,0,0,0-10.14,17.86,101.49,101.49,0,0,0,15.62,35.26c5.33-6.79,12.74-19.42,10.54-35.25a44.94,44.94,0,0,0-10.48-22.84A43.59,43.59,0,0,0,231,254.06Z"/><path d="M259.68,270.17c-2.38-17.15-12.17-28.65-17.8-34v-2.12a60.92,60.92,0,0,0-14.71-39.76h0a15.82,15.82,0,0,0,7.57-8.08,14.44,14.44,0,0,0,1-5.29,161.3,161.3,0,0,0-19.26,3.5,60.89,60.89,0,0,0-37-11.59,59.93,59.93,0,0,0-34.06,11.39A134.6,134.6,0,0,0,127,180.74a14.89,14.89,0,0,0,1.32,5.9,17.07,17.07,0,0,0,6.17,6.93c.12.09.24.15.36.24a62.7,62.7,0,0,0-15.46,41.27v14.66a77.43,77.43,0,0,0,77.43,77.43h45v-6.79C247.26,314.84,263.27,295.93,259.68,270.17Zm-79-84.59a48.08,48.08,0,0,1,19.82,4.26,30.39,30.39,0,0,0-5.95,3.52c-2.43,1.94-4.73,4.18-4.73,4.18a64.62,64.62,0,0,0-9.07,11.08,60.69,60.69,0,0,0-8-10,68.92,68.92,0,0,0-6.06-5.37,35.22,35.22,0,0,0-5.8-3.48A48.13,48.13,0,0,1,180.66,185.58Zm16.2,128.84a64.75,64.75,0,0,1-64.67-64.68V234.06a48.34,48.34,0,0,1,16.06-36,41.09,41.09,0,0,1,10.65,5.34,42.44,42.44,0,0,1,15.79,21.44l5.82,15.41,6.08-15.31a42.92,42.92,0,0,1,15.91-21.61A41.61,41.61,0,0,1,213,198a48.37,48.37,0,0,1,16.13,36.07v4.71a55.79,55.79,0,0,0-7.41,6.57,57.84,57.84,0,0,0-13.57,24.79,6.4,6.4,0,0,0-.07,2.95A114,114,0,0,0,226,314.42Zm50.5-34.23c0,.22,0,.44-.05.66-.05.67-.12,1.34-.2,2,0,.14,0,.28-.05.42-.1.76-.22,1.5-.36,2.23,0,.22-.09.44-.14.67-.12.56-.24,1.12-.38,1.67-.05.2-.09.39-.14.59-.18.67-.37,1.32-.57,2-.07.25-.16.49-.24.73-.14.45-.3.9-.46,1.34l-.26.72c-.22.58-.45,1.15-.69,1.7-.11.28-.23.54-.36.82s-.29.66-.45,1-.26.57-.4.84c-.24.49-.48,1-.73,1.42h0a54.81,54.81,0,0,1-5.37,8.24,100.56,100.56,0,0,1-7.16-12,101.74,101.74,0,0,1-5-11.6l-.06-.17c-.32-.9-.63-1.8-.92-2.7-.06-.18-.11-.36-.17-.55-.25-.78-.5-1.56-.73-2.35-.12-.41-.23-.81-.34-1.22-.17-.57-.33-1.15-.48-1.72-.26-1-.51-2-.74-3,.24-.78.49-1.56.77-2.33.09-.27.2-.54.3-.81.19-.49.37-1,.57-1.45l.43-1c.18-.4.36-.79.55-1.19s.35-.72.53-1.08l.54-1c.21-.39.42-.77.64-1.15s.33-.55.5-.82.51-.84.78-1.25l.25-.35a42.6,42.6,0,0,1,4.28-5.43,43.59,43.59,0,0,1,5.54-5,47.18,47.18,0,0,1,7.74,12.66l.09.23.57,1.5c.05.16.11.33.17.5.15.43.29.87.43,1.31l.18.62c.13.42.24.85.35,1.28.06.23.12.45.17.68.11.45.21.91.31,1.37,0,.21.09.42.13.63.12.67.24,1.36.34,2.06.12.88.2,1.75.27,2.61,0,.22,0,.45,0,.67,0,.78.08,1.55.08,2.31v.24C247.44,278.58,247.41,279.39,247.36,280.19Z"/><path class="cls-1" d="M160.9,189.81a35.22,35.22,0,0,1,5.8,3.48,68.92,68.92,0,0,1,6.06,5.37,60.69,60.69,0,0,1,8,10,64.62,64.62,0,0,1,9.07-11.08s2.3-2.24,4.73-4.18a30.39,30.39,0,0,1,5.95-3.52,48.25,48.25,0,0,0-39.58,0Z"/></svg>